<?xml version="1.0" encoding="UTF-8" standalone="no"?>
<svg
   xmlns:dc="http://purl.org/dc/elements/1.1/"
   xmlns:cc="http://creativecommons.org/ns#"
   xmlns:rdf="http://www.w3.org/1999/02/22-rdf-syntax-ns#"
   xmlns:svg="http://www.w3.org/2000/svg"
   xmlns="http://www.w3.org/2000/svg"
   xmlns:sodipodi="http://sodipodi.sourceforge.net/DTD/sodipodi-0.dtd"
   xmlns:inkscape="http://www.inkscape.org/namespaces/inkscape"
   width="537.265"
   height="640.465"
   id="svg2"
   sodipodi:version="0.32"
   inkscape:version="0.46dev+devel"
   sodipodi:docname="POL_Zielona_Góra_COA_2.svg"
   inkscape:output_extension="org.inkscape.output.svg.inkscape">
  <metadata
     id="metadata31">
    <rdf:RDF>
      <cc:Work
         rdf:about="">
        <dc:format>image/svg+xml</dc:format>
        <dc:type
           rdf:resource="http://purl.org/dc/dcmitype/StillImage" />
      </cc:Work>
    </rdf:RDF>
  </metadata>
  <sodipodi:namedview
     inkscape:window-height="643"
     inkscape:window-width="640"
     inkscape:pageshadow="2"
     inkscape:pageopacity="0.0"
     guidetolerance="10.0"
     gridtolerance="10.0"
     objecttolerance="10.0"
     borderopacity="1.0"
     bordercolor="#666666"
     pagecolor="#ffffff"
     id="base"
     showgrid="false"
     inkscape:zoom="0.6745099"
     inkscape:cx="268.63251"
     inkscape:cy="320.23251"
     inkscape:window-x="22"
     inkscape:window-y="29"
     inkscape:current-layer="svg2" />
  <defs
     id="defs4">
    <marker
       id="ArrowEnd"
       viewBox="0 0 10 10"
       refX="0"
       refY="5"
       markerUnits="strokeWidth"
       markerWidth="4"
       markerHeight="3"
       orient="auto">
      <path
         d="M 0 0 L 10 5 L 0 10 z"
         id="path7" />
    </marker>
    <marker
       id="ArrowStart"
       viewBox="0 0 10 10"
       refX="10"
       refY="5"
       markerUnits="strokeWidth"
       markerWidth="4"
       markerHeight="3"
       orient="auto">
      <path
         d="M 10 0 L 0 5 L 10 10 z"
         id="path10" />
    </marker>
  </defs>
  <g
     id="g12">
    <path
       style="stroke:none; fill-rule:evenodd; fill:#222222"
       d="M 0 0L 537.265 0L 537.265 378.106C 528.269 533.95 421.683 636.375 266.976 640.465C 109.578 639.09 3.504 515.809 0 378.106L 0 0"
       id="path14" />
    <path
       style="stroke:none; fill-rule:evenodd; fill:#fffdfd"
       d="M 11.7032 10.856L 524.5 10.856L 524.5 375.59C 515.914 525.918 414.183 624.723 266.519 628.668C 116.289 627.34 15.0469 508.418 11.7032 375.59L 11.7032 10.856"
       id="path16" />
    <path
       style="stroke:none; fill-rule:evenodd; fill:#222222"
       d="M 19.7657 19.43L 516.015 19.43L 516.015 374.039C 507.672 520.196 409.847 616.258 266.355 620.094C 120.367 618.801 23.0157 503.184 19.7696 374.039L 19.7696 19.43"
       id="path18" />
    <path
       style="stroke:none; fill-rule:evenodd; fill:#fff101"
       d="M 192.082 226.641C 201.219 240.313 211.035 253.641 223.32 264.758C 222.711 262.746 223.34 260.184 224.129 258.168C 226.055 258.778 227.98 258.692 229.906 257.907C 220.558 251.207 212.457 243.676 205.211 235.575C 201.082 229.797 198.793 224.106 205.211 216.922C 210.199 213.762 214.926 211.301 222.023 215.871C 226.312 219.196 226.75 224.454 225.437 230.582C 232.652 230.907 240.43 233.664 245.402 224.278C 247.59 222.004 247.328 220.075 244.617 218.5C 241.894 217.629 239.789 216.493 241.992 213.512C 245.406 212.461 246.019 211.411 243.828 210.36C 237.875 210.274 231.918 210.188 225.965 210.098C 222.812 212.024 221.062 212.2 220.711 210.621C 220.094 207.821 220 205.02 223.597 202.215C 225.652 199.633 228.015 197.356 231.476 196.172C 231.207 193.633 231.808 191.18 238.57 189.344C 244.617 190.539 246.867 187.184 249.34 184.09C 249.687 187.067 251.437 188.641 254.594 188.817C 255.773 193.5 254.551 197.704 252.23 201.688C 253.015 202.739 253.805 203.789 254.594 204.84C 256.168 205.891 257.746 205.188 259.32 202.739C 261.508 201.164 262.996 201.688 263.785 204.313C 264.133 205.625 264.484 206.938 264.832 208.25C 269.078 207.204 270.918 201.332 271.66 193.278C 272.269 190.828 272.183 188.375 271.398 185.922C 266.41 186.883 262.469 185.75 259.578 182.508C 254.922 177.43 255.805 172.961 257.476 168.586C 260.496 161.758 266.941 161.778 273.5 162.02C 281.23 165.411 285.129 170.446 287.949 175.942C 291.758 179.094 294.734 182.246 297.144 185.399C 298.39 184.571 299.922 184.305 301.871 184.875C 305.262 188.375 307.406 191.879 308.699 195.383C 308.527 199.059 307.301 200.985 305.023 201.161C 306.246 204.399 307.824 206.938 309.75 208.778C 311.851 206.676 313.601 205.625 315.004 205.625C 319.828 207.723 320.351 211.051 320.258 214.555C 319.558 218.496 317.457 221.036 313.953 222.172C 310.793 221.293 311.32 222.868 312.379 224.797C 313.164 225.582 313.953 226.371 314.742 227.161C 316.93 228.473 318.066 227.684 318.156 224.797C 317.457 221.821 318.504 220.946 321.308 222.172C 327.187 225.141 328.758 229.961 329.715 235.043C 328.797 240.207 325.469 241.524 321.047 241.086C 315.531 240.606 310.976 237.715 306.859 233.731C 304.058 231.895 300.992 228.918 298.191 226.375C 296.004 224.977 295.476 225.852 296.09 227.95C 300.64 234.254 305.723 235.828 310.539 239.77C 312.64 240.907 312.64 241.696 310.539 242.133C 307.738 243.532 307.035 245.282 308.437 247.387C 310.973 248.879 314.125 247.914 317.367 246.602C 319.64 243.278 322.969 242.399 327.347 243.977C 330.062 244.852 330.324 245.727 328.133 246.602C 327.082 247.039 325.242 246.95 324.191 247.387C 321.652 247.996 322.004 249.399 323.668 250.012C 327.433 250.446 330.933 251.149 334.699 251.586C 332.156 252.192 330.226 252.629 330.496 256.051C 330.234 259.989 328.922 260.778 326.558 258.414C 325.515 256.133 324.027 254.289 319.465 255.528C 314.988 256.836 314.207 259.989 313.949 263.407C 316.148 268.938 313.433 268.93 310.012 268.133C 308.168 266.305 308.172 260.786 308.437 254.735C 307.957 252.414 306.82 251.188 304.234 252.371C 300.82 254.657 298.015 252.641 295.305 250.008C 292.152 249.223 291.101 250.18 292.152 252.895C 292.152 254.731 293.551 256.571 296.351 258.411C 299.504 257.012 301.953 257.012 303.707 258.411C 304.582 259.985 304.754 261.911 304.23 264.188C 302.918 266.024 303.008 267.512 304.492 268.653C 306.066 270.489 307.992 272.328 310.269 274.168C 312.105 274.516 313.945 274.168 315.785 273.118C 316.133 270.317 317.183 268.215 318.937 266.813C 318.347 263.704 319.351 262.743 321.562 265.239C 326.394 270.493 324.547 275.133 322.347 279.688C 320.336 280.911 320.074 282.137 321.562 283.364C 323.312 286.078 325.062 288.793 326.816 291.508C 326.996 294.93 326.652 297.649 322.613 295.446C 319.726 294.661 317.535 293.52 316.047 292.032C 312.98 290.188 311.144 290.805 309.48 291.77C 302.828 294.133 297.047 294.309 293.195 289.668C 297.41 287.243 301.808 285.184 305.281 281.262C 303.797 278.371 302.133 275.571 299.238 273.383C 298.547 270.313 295.39 270.313 291.883 270.758C 289.957 270.762 288.203 270.328 287.68 266.821C 289.078 265.246 289.43 263.668 288.73 262.094C 288.031 260.168 286.629 258.59 284.527 257.368C 281.203 256.493 279.976 257.368 280.851 259.993C 283 262.868 285.894 265.559 285.055 269.184C 283.48 268.836 283.656 270.934 285.578 275.489C 287.152 277.414 288.027 277.239 288.203 274.965C 291.09 273.559 294.152 272.68 298.445 275.489C 300.055 277.391 302.226 278.918 301.597 282.317C 300.547 283.192 299.496 283.016 298.445 281.793C 295.996 279.43 293.894 279.168 292.14 281.008C 292.414 283.196 292.875 285.383 292.402 287.575C 291.004 288.711 290.652 289.848 291.355 290.989C 291.437 292.649 292.75 294.313 294.242 295.977C 294.414 297.551 293.543 298.078 291.617 297.551C 289.867 296.59 288.465 295.278 287.418 293.614C 285.93 289.063 285.14 289.059 285.055 293.614C 285.14 294.313 285.226 295.012 285.316 295.715C 284.703 295.801 284.09 295.887 283.48 295.977C 282.082 295.016 281.379 293 281.379 289.934C 282.031 285.164 282.473 280.172 282.43 274.7C 278.664 275.137 275.949 273.825 274.285 270.762C 273.058 267.258 271.133 264.457 268.508 262.356C 266.933 260.606 266.406 260.957 266.933 263.407C 267.98 266.996 269.289 270.586 272.449 274.176C 275.019 276.141 278.156 277.36 278.492 282.321C 279.629 289.282 278.578 293.836 272.715 293.09C 269.476 292.657 266.406 291.957 264.574 289.414C 262.387 287.141 262.301 285.563 264.312 284.688C 264.922 283.024 264.836 281.36 264.051 279.7C 261.949 278.477 260.551 276.899 259.851 274.973C 257.574 272.258 256.347 272.348 256.176 275.235C 255.652 280.489 253.027 282.59 248.297 281.539C 245.41 279.274 242.519 277.196 239.629 274.184C 237.793 271.383 238.402 269.633 241.465 268.93C 243.039 267.793 243.215 266.653 241.988 265.516C 240.328 263.856 239.012 263.942 238.051 265.778C 237.09 267.704 235.777 268.926 234.113 269.454C 232.715 269.539 230.762 270.176 229.363 270.262C 257.457 297 289.465 307.02 329.223 297.297C 348.094 250.204 333.379 202.254 269.582 153.059L 192.078 226.621"
       id="path20" />
    <path
       style="stroke:none; fill-rule:evenodd; fill:#fffdfd"
       d="M 295.949 133.321C 309.719 159.215 326.93 173.782 349.168 171.789C 349.351 173.84 350.035 175.149 351.219 177.204C 344.715 176.723 337.867 174.7 333.105 174.403C 330.367 172.723 328.375 172.786 327.133 174.586C 326.883 175.454 327.133 176.328 327.879 177.2C 337.805 183.454 347.949 189.926 358.875 197.18C 359.34 199.043 359.027 200.911 357.012 202.782C 355.394 203.774 351.91 204.77 349.918 203.153C 333.121 189.157 322.648 177.5 313.32 163.004C 311.953 161.325 311.332 161.387 311.453 163.188C 318.246 175.539 328.418 188.985 350.668 206.325C 347.808 208.629 344.941 210.438 342.078 208.75C 323.887 191.395 305.562 174.403 295.953 133.309L 295.949 133.321zM 363.457 198.672C 362.387 198.582 361.769 199.125 361.609 200.317C 361.617 201.258 361.492 202.27 363.726 202.098C 364.785 202.93 366.223 203.137 367.832 203.055C 368.492 202.922 369.062 202.625 368.992 201.207C 368.379 200.454 367.394 200.067 366.051 200.043C 365.734 199.039 364.863 198.582 363.453 198.672L 363.457 198.672zM 353.187 174.473C 352.664 176.344 353.504 177.762 355.719 178.723C 357.039 178.789 357.633 178.313 357.496 177.286C 356.371 176.45 355.316 175.543 354.555 174.34C 354.101 173.512 353.644 174.141 353.187 174.477L 353.187 174.473zM 245.347 240.563C 264.527 247.016 286.07 224.7 281.765 206.52C 275.082 224.684 263.293 236.473 245.347 240.563zM 237.664 195.899C 238.457 195.899 239.105 196.489 239.105 197.211C 239.105 197.934 238.457 198.524 237.664 198.524C 236.871 198.524 236.219 197.934 236.219 197.211C 236.219 196.489 236.867 195.899 237.664 195.899"
       id="path22" />
    <path
       style="stroke:none; fill-rule:evenodd; fill:#3ba66d"
       d="M 229.793 60.59L 232.164 68.184L 234.301 65.813C 233.273 63.364 231.297 62.332 229.793 60.59zM 27.004 26.641L 170.965 26.641L 183.344 41.125C 180.793 39.633 179.324 39.606 176.258 40.668L 175.695 45.942L 159.875 35.262L 157.547 39.176L 129 30.899C 126.75 30.008 125.269 30.395 124.555 32.055L 167.394 58.762L 156.273 63.485C 148.801 64.914 144.433 66.575 141.558 69.539L 184.555 76.512L 237.32 108.547L 211.461 140.098L 230.473 160.289L 232.43 183.207L 186.992 226.176C 207.355 257.586 233.824 289.731 273.176 301.766L 248.941 301.766L 248.941 314.895L 225.383 314.895L 225.383 301.496L 192.637 301.489L 192.637 334.317L 204.68 334.317L 204.695 376.34L 195.273 376.34L 195.273 360.653L 167.558 360.653L 167.558 311.977L 171.078 311.977L 145.281 278.18L 145.281 180.704L 155.125 180.704L 155.125 142.45L 135.195 142.45L 103.777 79.301C 108.226 78.825 110.644 75.149 110.644 71.493C 110.644 66.985 106.969 63.305 102.457 63.305C 97.9492 63.305 94.2692 66.981 94.2692 71.493C 94.2692 75.098 96.9652 78.172 100.215 79.262L 67.625 142.454L 46.7618 142.454L 46.7618 180.707L 57.629 180.707L 57.629 277.77L 32.3946 311.981L 40.3946 311.981L 40.3946 377.465L 27.0196 377.465L 27.0196 26.618L 27.004 26.641zM 253.547 26.641L 508.777 26.641L 508.777 377.43L 493.324 377.43L 493.324 312.059L 500.035 311.528L 475.219 277.168L 475.219 181.903L 485.355 181.903L 485.355 142.192L 464.734 142.192L 433.031 80.954C 435.926 79.969 438.644 77.219 438.644 74C 438.644 69.954 435.344 66.653 431.297 66.653C 427.25 66.653 423.949 69.954 423.949 74C 423.949 77.246 426.07 80.012 429 80.977L 398.09 142.192L 376.375 142.192L 376.375 181.903L 387.863 181.903L 387.863 277.168L 362.523 312.059L 364.965 312.059L 364.976 361.578L 336.691 361.578L 336.691 376.364L 331.887 376.364L 331.918 334.34L 342.668 334.34L 342.668 302.578L 320.531 302.578C 320.808 301.954 332.344 301.516 332.609 300.891C 354.414 248.817 334.672 203.711 286.762 160.09C 288.797 155.625 291.363 153.571 298.226 153.922C 303.687 175.356 319.062 194.641 343.812 214.469C 349.801 212.313 356.062 209.075 359.898 202.606L 368.125 206.942C 371.344 205.02 371.41 202.469 371.027 199.825C 358.269 193.266 346 185.715 333.961 177.719C 348.621 181.11 359.019 181.539 364.351 178.473C 360.293 174.016 355.875 170.633 351.101 168.328C 324.719 169.594 306.183 152.676 293.586 115.344L 316.605 111.004C 319.207 110.692 320.535 108.551 320.582 106.192L 322.25 76.653C 321.039 74.68 319.828 74.496 318.617 76.102L 314.074 94.235C 309.797 95.543 307.82 94.805 308.148 92.032C 312.273 87.934 314.609 81.786 315.16 73.594C 313.558 71.418 312.215 71.032 311.125 72.434L 308.277 48.93C 307.168 46.996 305.992 45.512 304.363 47.172C 302.773 48.7 301.504 51.024 300.937 55.11L 299.797 46.559C 294.09 44.618 290.933 42.422 290.34 39.969L 286.297 33.332C 284.699 31.219 283.097 31.149 281.496 33.121L 280.996 36.793C 278.23 36.403 275.629 35.215 273.371 32.266C 270.973 30.782 269.594 30.832 269.238 32.411L 270.25 39.114C 269.594 40.348 268.937 40.047 268.281 38.219C 267.012 36.563 265.879 34.223 264.062 35.289C 262.34 36.512 261.387 36.461 261.199 35.133C 260.703 30.778 258.156 27.954 253.566 26.664L 253.547 26.641zM 283.785 303.496C 290.734 304.594 299.773 305.082 307.055 304.676L 307.055 314.918L 283.785 314.918L 283.785 303.493L 283.785 303.496zM 206.051 26.641L 177.562 26.641C 181.515 29.407 186.265 31.543 192.754 33.047L 201.535 37.555L 215.777 51.325C 217.43 51.793 218.062 51.243 217.676 49.664L 204.859 37.082C 202.172 35.661 201.379 34.235 202.488 32.813C 204.703 30.903 206.285 31.364 207.234 30.68L 206.051 26.645L 206.051 26.641zM 227.18 26.641L 227.18 33.996C 223.422 30.239 220.449 27.692 218.59 28.364C 216.535 29.313 214.918 28.852 214.125 26.641L 227.18 26.641zM 238.34 26.641L 246.648 26.641C 247.754 28.856 247.914 31.071 247.121 33.286C 242.93 31.704 240 29.489 238.34 26.641zM 203.363 489.883C 204.355 483.465 205.75 477.434 207.555 471.828L 217.172 471.828L 217.172 488.223L 222.953 495.461L 228.453 488.223L 228.453 471.828L 237.98 471.828L 237.98 488.223L 243.601 495.461L 249.262 488.223L 249.262 471.828L 258.789 471.828L 258.789 488.223L 264.465 495.461L 270.07 488.223L 270.07 471.828L 279.597 471.828L 279.597 488.223L 285.328 495.461L 290.883 488.223L 290.883 471.828L 300.41 471.828L 300.41 488.223L 306.191 495.461L 311.691 488.223L 311.691 471.828L 320.941 471.828C 322.648 477.313 323.973 483.321 324.89 489.883L 324.89 604.114C 284.371 614.36 243.847 614.36 203.324 604.114L 203.324 489.883L 203.363 489.883zM 211.047 462.668C 212.828 458.68 214.867 454.965 217.172 451.539L 217.172 462.668L 211.047 462.668zM 228.465 438.891C 231.387 436.438 234.558 434.266 237.992 432.399L 237.992 462.672L 228.465 462.672L 228.465 438.895L 228.465 438.891zM 249.277 427.641C 252.297 426.7 255.473 425.942 258.805 425.371L 258.805 462.668L 249.277 462.668L 249.277 427.645L 249.277 427.641zM 270.094 425.477C 273.394 426.141 276.574 426.977 279.621 427.985L 279.621 462.664L 270.094 462.664L 270.094 425.473L 270.094 425.477zM 290.914 432.864C 294.308 434.727 297.488 436.887 300.441 439.356L 300.441 462.664L 290.914 462.664L 290.914 432.86L 290.914 432.864zM 311.73 451.985C 313.902 455.235 315.851 458.789 317.562 462.664L 311.73 462.664L 311.73 451.985"
       id="path24" />
    <path
       style="stroke:none; fill-rule:evenodd; fill:#fffdfd"
       d="M 238.93 388L 248.984 423.614C 261.484 419.719 266.59 419.469 279.172 423.391L 289.004 387.778C 276.328 381.438 251.551 381.688 238.926 388L 238.93 388zM 195.168 414.133L 196.414 414.133L 196.414 414.125L 202.332 414.125C 201.461 414.887 198.808 418.016 197.949 418.805L 191.91 413.137C 190.117 414.758 189.683 415.309 188.051 417.028L 168.531 417.028L 168.531 434.032L 175.644 434.032C 175.109 434.989 174.586 435.957 174.086 436.938L 148.105 436.938L 148.105 452.391L 177.265 452.391C 176.793 453.442 176.336 454.496 175.898 455.555L 168.281 455.555L 168.281 473.336L 170.195 473.336C 169.976 474.301 169.765 475.27 169.57 476.243L 148.371 476.243L 148.371 494.024L 164.398 494.024L 164.398 497.446L 125.871 497.446L 125.871 515.223L 164.398 515.223L 164.398 516.899L 172.113 516.899L 172.113 518.903L 148.625 518.903L 148.625 537.2L 172.113 537.2L 172.113 551.149L 169.941 551.149L 169.941 540.364L 124.574 540.364L 124.574 556.332L 163.879 556.332L 163.879 559.754L 147.07 559.754L 147.07 575.723L 163.879 575.723L 163.879 579.403L 145.933 579.403C 143.875 578.203 141.828 576.981 139.812 575.723L 145.113 575.723L 145.113 559.754L 117.359 559.754C 115.961 558.629 114.574 557.489 113.199 556.332L 122.359 556.332L 122.359 540.364L 96.1212 540.364C 95.1132 539.321 94.1132 538.266 93.1252 537.2L 102.707 537.2L 102.707 518.903L 77.7892 518.903C 76.8712 517.688 75.9692 516.457 75.0702 515.223L 79.9492 515.223L 79.9492 497.446L 63.4024 497.446C 62.5274 495.965 61.6641 494.469 60.8164 492.965L 60.8164 476.243L 52.2422 476.243C 51.7969 475.278 51.3594 474.309 50.9219 473.336L 80.2112 473.336L 80.2112 455.555L 43.793 455.555C 43.418 454.504 43.0547 453.45 42.6954 452.391L 59.0079 452.391L 59.0079 436.938L 37.9883 436.938C 37.7305 435.973 37.4727 435.004 37.2227 434.032L 37.543 434.032L 37.543 417.028L 32.8868 417.028C 32.711 416.063 32.5352 415.094 32.3672 414.121L 60.5625 414.121L 60.5625 397.118L 29.9922 397.118C 29.9258 396.481 29.8477 395.844 29.7852 395.2L 232.836 395.2L 228.457 397.118L 195.195 397.118L 195.195 414.133L 195.168 414.133zM 243.238 388.672C 257.16 384.211 270.125 383.782 284.898 388.438L 276.074 419.848C 267.433 417.043 260.156 417.696 251.512 420.399L 243.242 388.668L 243.238 388.672zM 244.988 389.547C 258.91 385.411 268.453 384.891 283.226 389.235L 275.117 418.102C 265.98 415.907 260.68 416.297 252.355 418.586L 244.992 389.547L 244.988 389.547zM 289.117 393.758C 305.012 398.871 320.262 408.481 330.129 419.817L 309.269 441.149C 302.094 433.493 291.941 427.469 280.637 423.641L 289.117 393.758zM 336.445 415.227C 344.347 422.618 352.187 433.305 357.515 446.043L 321.941 461.789C 318.711 453.715 314.945 447.528 310.058 442.036L 336.445 415.227zM 348.898 451.481C 353.949 462.426 357.715 475.454 359.121 490.043L 329.543 490.043C 327.808 479.774 325.359 470.27 322.441 462.692L 348.898 451.485L 348.898 451.481zM 363.723 491.356L 363.723 515.723L 356.308 515.723L 356.308 515.719L 329.633 515.719L 329.633 491.305L 363.723 491.352L 363.723 491.356zM 329.629 516.918L 355.414 516.918L 355.414 552.016L 329.629 552.016L 329.629 516.918zM 329.629 553.106L 362.933 553.106L 362.933 580.043L 329.629 580.043L 329.629 553.106zM 355.863 581.391L 355.223 594.114L 329.633 602.235L 329.633 581.387L 355.863 581.387L 355.863 581.391zM 354.625 582.598L 332.047 582.598L 332.047 599.707L 354.297 593.09L 354.621 582.602L 354.625 582.598zM 353.515 583.582L 333.226 583.582L 333.226 598.332L 353.187 592.301L 353.512 583.586L 353.515 583.582zM 361.238 555.657L 331.984 555.657L 331.984 576.7L 361.238 576.7L 361.238 555.657zM 360.32 556.637L 333.027 556.637L 333.027 575.578L 360.32 575.578L 360.32 556.637zM 353.055 520.454L 331.98 520.454L 331.98 547.918L 353.055 547.918L 353.055 520.454zM 352.008 521.434L 333.094 521.434L 333.094 546.606L 352.008 546.606L 352.008 521.434zM 360.965 492.598L 331.816 492.598L 331.816 514.672L 360.965 514.672L 360.965 492.598zM 359.949 493.762L 332.906 493.762L 332.906 513.512L 359.949 513.512L 359.949 493.762zM 348.148 454.774L 325.75 463.434C 328.207 470.93 330.39 479.27 331.601 488.645L 356.656 488.645C 355.363 476.321 352.148 464.805 348.148 454.77L 348.148 454.774zM 347.289 456.414L 326.996 464.063C 329.453 471.563 331.406 478.18 332.613 487.555L 355.402 487.555C 353.621 475.231 350.734 466.446 347.289 456.414zM 336.672 419.727C 344.305 426.664 350.004 434.844 354.019 444.899L 323.816 458.399C 320.66 451.34 317.383 446.118 313.183 441.344L 336.676 419.727L 336.672 419.727zM 336.75 421.446C 343.933 428.735 347.875 434.121 352.301 444.121L 324.437 456.922C 321.18 450.067 318.914 446.336 314.82 441.352L 336.75 421.45L 336.75 421.446zM 325.734 419.786C 317.019 411.145 305.867 403.246 291.648 398.157L 284.09 421.516C 293.762 426.075 302.492 430.762 309.238 437.418L 325.734 419.786zM 323.723 419.899C 314.695 411.567 306.59 405.434 292.652 400.059L 285.43 420.844C 295.101 425.403 302.492 429.086 309.238 435.739L 323.723 419.899zM 238.89 394.286C 222.996 399.399 208.859 408.313 198.996 419.649L 219.855 440.981C 227.031 433.325 236.293 427.883 247.594 424.059L 238.89 394.286zM 192.219 414.715C 185.344 421.184 177.773 430.852 171.48 445.973C 182.976 451.442 195.18 456.981 206.781 462.239C 210.012 454.164 214 447.524 218.89 442.036L 192.223 414.715L 192.219 414.715zM 179.265 451.153C 173.976 462.02 169.961 475.399 168.683 490.153L 199.406 490.043C 201.14 479.774 203.418 470.957 206.336 463.375L 179.265 451.157L 179.265 451.153zM 165.609 491.305L 165.609 515.723L 199.32 515.719L 199.32 491.305L 165.609 491.305zM 199.32 516.914L 173.445 516.914L 173.445 551.172L 199.32 551.172L 199.32 516.914zM 165.019 552.246L 165.019 580.121L 199.32 580.149L 199.32 552.27L 165.019 552.246zM 172.75 581.391L 173.484 593.192C 181.863 596.528 190.699 599.618 199.316 602.239L 199.316 581.391L 172.75 581.391zM 174.324 582.418L 196.902 582.418L 196.902 600.067L 175.101 592.368L 174.328 582.422L 174.324 582.418zM 175.437 583.582L 195.726 583.582L 195.726 598.332L 176.305 591.672L 175.441 583.586L 175.437 583.582zM 167.715 555.383L 197.058 555.383L 197.058 576.965L 167.715 576.965L 167.715 555.383zM 168.988 556.637L 195.918 556.637L 195.918 575.578L 168.988 575.578L 168.988 556.637zM 175.894 520.454L 196.969 520.454L 196.969 547.918L 175.894 547.918L 175.894 520.454zM 177.305 521.707L 195.586 521.707L 195.586 546.606L 177.305 546.606L 177.305 521.707zM 167.988 493.5L 197.137 493.5L 197.137 513.895L 167.988 513.895L 167.988 493.5zM 169.035 494.485L 196.105 494.485L 196.105 512.793L 169.035 512.793L 169.035 494.485zM 180.805 454.774L 203.113 464.246C 200.656 471.743 198.558 479.036 197.351 488.411L 171.961 488.532C 173.254 476.207 176.805 464.805 180.805 454.77L 180.805 454.774zM 181.574 456.504L 201.687 464.961C 199.23 472.461 197.547 477.676 196.34 487.047L 173.531 487.145C 174.75 475.383 177.734 466.93 181.578 456.496L 181.574 456.504zM 192.277 419.727C 184.89 426.227 179.121 434.278 174.726 445.121L 204.844 458.985C 208 451.922 211.031 446.743 215.234 441.969L 192.277 419.727zM 192.199 421.45C 184.621 428.868 180.316 435.137 176.273 444.52L 204.398 457.5C 207.656 450.645 209.586 447.133 213.504 441.973L 192.199 421.45zM 202.601 419.625C 210.926 410.399 221.887 403.403 236.277 398.567L 244.461 421.946C 234.789 426.055 226.461 430.911 219.715 437.563L 202.605 419.625L 202.601 419.625zM 204.387 419.735C 213.027 410.825 221.496 405.356 235.609 400.243L 243.008 421.047C 233.691 425.606 226.703 429.227 219.711 435.883L 204.387 419.735zM 172.23 592.661C 171.379 592.297 170.527 591.93 169.68 591.555L 169.68 581.364L 171.64 581.364L 172.226 592.664L 172.23 592.661zM 203.531 412.996L 196.332 412.996L 196.332 398.25L 225.926 398.25C 218.152 401.805 210.609 406.95 203.531 412.996zM 168.515 591.028C 161.422 587.856 154.527 584.371 147.867 580.571L 163.875 580.571L 163.875 581.36L 168.512 581.36L 168.512 591.028L 168.515 591.028zM 138.043 574.625C 131.367 570.368 124.933 565.793 118.773 560.911L 143.949 560.911L 143.949 574.625L 138.047 574.625L 138.043 574.625zM 111.871 555.231C 106.785 550.871 101.898 546.297 97.2192 541.516L 121.191 541.516L 121.191 555.231L 111.875 555.231L 111.871 555.231zM 92.0582 536.094C 87.3472 530.961 82.8752 525.606 78.6372 520.055L 101.535 520.055L 101.535 536.094L 92.0622 536.094L 92.0582 536.094zM 74.2342 514.114C 70.6485 509.094 67.2579 503.911 64.0625 498.59L 78.7772 498.59L 78.7772 514.114L 74.2342 514.114zM 59.6407 490.891C 57.211 486.481 54.9141 481.977 52.754 477.383L 59.6407 477.383L 59.6407 490.891zM 50.3985 472.215C 48.1602 467.141 46.0938 461.961 44.1875 456.692L 79.0352 456.692L 79.0352 472.215L 50.3985 472.215zM 42.2969 451.27C 40.8438 446.934 39.504 442.532 38.2813 438.075L 57.8321 438.075L 57.8321 451.27L 42.3008 451.27L 42.2969 451.27zM 36.3672 430.7C 35.3672 426.567 33.8868 422.383 33.086 418.161L 36.3672 418.161L 36.3672 430.7zM 32.1563 412.996C 31.336 408.137 30.6485 403.219 30.0977 398.25L 59.3829 398.25L 59.3829 412.996L 32.1563 412.996zM 148.226 560.911L 163.871 560.911L 163.871 574.625L 148.226 574.625L 148.226 560.911zM 125.73 541.516L 168.773 541.516L 168.773 551.172L 163.879 551.172L 163.879 555.227L 125.734 555.227L 125.734 541.512L 125.73 541.516zM 149.781 520.051L 172.105 520.051L 172.105 536.09L 149.781 536.09L 149.781 520.051zM 104.914 518.922L 144.332 518.922L 144.332 537.219L 104.914 537.219L 104.914 518.922zM 106.074 520.051L 143.168 520.051L 143.168 536.09L 106.074 536.09L 106.074 520.051zM 82.6722 497.457L 122.09 497.457L 122.09 515.239L 82.6722 515.239L 82.6722 497.457zM 83.8362 498.586L 120.93 498.586L 120.93 514.11L 83.8362 514.11L 83.8362 498.586zM 127.023 498.586L 164.387 498.586L 164.387 514.11L 127.023 514.11L 127.023 498.586zM 149.262 438.071L 173.515 438.071C 172.097 440.946 170.945 443.688 169.836 446.75L 178.113 450.578C 178.078 450.657 177.816 451.184 177.781 451.262L 149.265 451.262L 149.265 438.067L 149.262 438.071zM 105.172 436.942L 146.14 436.942L 146.14 452.395L 105.172 452.395L 105.172 436.942zM 106.332 438.071L 144.98 438.071L 144.98 451.266L 106.332 451.266L 106.332 438.071zM 61.7266 436.942L 103.215 436.942L 103.215 452.395L 61.7266 452.395L 61.7266 436.942zM 62.8868 438.071L 102.051 438.071L 102.051 451.266L 62.8868 451.266L 62.8868 438.071zM 169.433 456.692L 175.43 456.692C 173.387 461.766 171.726 466.942 170.457 472.215L 169.437 472.215L 169.437 456.692L 169.433 456.692zM 126.121 455.563L 165.539 455.563L 165.539 473.344L 126.121 473.344L 126.121 455.563zM 127.281 456.692L 164.375 456.692L 164.375 472.215L 127.281 472.215L 127.281 456.692zM 149.523 477.379L 169.34 477.379C 168.531 481.618 167.965 485.922 167.644 490.286L 164.394 490.286L 164.394 492.903L 149.527 492.903L 149.527 477.379L 149.523 477.379zM 105.949 476.25L 145.367 476.25L 145.367 494.032L 105.949 494.032L 105.949 476.25zM 107.109 477.379L 144.203 477.379L 144.203 492.903L 107.109 492.903L 107.109 477.379zM 63.0196 476.25L 102.437 476.25L 102.437 494.032L 63.0196 494.032L 63.0196 476.25zM 64.1797 477.379L 101.273 477.379L 101.273 492.903L 64.1797 492.903L 64.1797 477.379zM 83.1912 455.563L 122.609 455.563L 122.609 473.344L 83.1912 473.344L 83.1912 455.563zM 84.3512 456.692L 121.445 456.692L 121.445 472.215L 84.3512 472.215L 84.3512 456.692zM 169.691 418.161L 186.91 418.161C 182.719 422.735 179.359 427.653 176.297 432.907L 169.695 432.907L 169.695 418.161L 169.691 418.161zM 126.894 417.032L 166.312 417.032L 166.312 434.036L 126.894 434.036L 126.894 417.032zM 128.058 418.161L 165.152 418.161L 165.152 432.907L 128.058 432.907L 128.058 418.161zM 84.2262 417.032L 123.644 417.032L 123.644 434.036L 84.2262 434.036L 84.2262 417.032zM 85.3872 418.161L 122.48 418.161L 122.48 432.907L 85.3872 432.907L 85.3872 418.161zM 40.004 417.032L 79.4222 417.032L 79.4222 434.036L 40.004 434.036L 40.004 417.032zM 41.1641 418.161L 78.2582 418.161L 78.2582 432.907L 41.1641 432.907L 41.1641 418.161zM 63.5352 397.118L 102.953 397.118L 102.953 414.121L 63.5352 414.121L 63.5352 397.118zM 64.6954 398.246L 101.789 398.246L 101.789 412.993L 64.6954 412.993L 64.6954 398.246zM 106.723 397.118L 146.14 397.118L 146.14 414.121L 106.723 414.121L 106.723 397.118zM 107.887 398.246L 144.98 398.246L 144.98 412.993L 107.887 412.993L 107.887 398.246zM 149.652 397.118L 189.07 397.118L 189.07 414.121L 149.652 414.121L 149.652 397.118zM 150.816 398.246L 187.91 398.246L 187.91 412.993L 150.816 412.993L 150.816 398.246zM 506.316 395.2L 296.664 395.2L 301.84 397.118L 341.496 397.118L 341.496 414.121L 336.871 414.121C 337.855 415.071 339.16 416.043 340.094 417.028L 368.129 417.028L 368.129 434.032L 352.812 434.032C 353.347 434.989 353.91 435.957 354.41 436.938L 388.558 436.938L 388.558 452.391L 350.664 452.391C 351.137 453.442 351.594 454.496 352.031 455.555L 368.383 455.555L 368.383 473.336L 357.734 473.336C 357.957 474.301 358.164 475.27 358.359 476.243L 388.293 476.243L 388.293 494.024L 364.847 494.024L 364.847 516.864L 356.719 516.864L 356.719 518.907L 388.039 518.907L 388.039 537.204L 356.664 537.204L 356.664 551.981L 364.195 551.981L 364.195 559.762L 389.59 559.762L 389.59 575.731L 364.195 575.731L 364.195 581.383L 356.992 581.371L 356.289 593.578L 366.984 590.231L 366.984 579.418L 390.73 579.418C 392.789 578.219 394.836 576.996 396.851 575.739L 391.551 575.739L 391.551 559.77L 419.305 559.77C 420.703 558.645 422.09 557.504 423.465 556.348L 414.305 556.348L 414.305 540.379L 440.543 540.379C 441.551 539.336 442.551 538.282 443.539 537.215L 433.957 537.215L 433.957 518.918L 458.875 518.918C 459.793 517.704 460.695 516.473 461.59 515.239L 456.711 515.239L 456.711 497.461L 473.258 497.461C 474.137 495.981 474.996 494.485 475.844 492.981L 475.844 476.258L 484.418 476.258C 484.863 475.293 485.301 474.325 485.738 473.352L 456.449 473.352L 456.449 455.571L 492.867 455.571C 493.238 454.52 493.605 453.465 493.965 452.407L 477.652 452.407L 477.652 436.954L 498.672 436.954C 498.93 435.989 499.187 435.02 499.437 434.047L 499.117 434.047L 499.117 417.043L 503.183 417.043C 503.359 416.078 503.535 415.11 503.703 414.137L 476.097 414.137L 476.097 397.133L 506.078 397.133C 506.144 396.496 506.223 395.86 506.285 395.215L 506.316 395.2zM 335.797 414.121L 326.89 414.121C 327.762 414.883 330.34 417.895 331.199 418.684L 335.793 414.121L 335.797 414.121zM 304.18 398.246C 311.828 402.719 319.078 406.957 325.586 412.993L 340.336 412.993L 340.336 398.246L 304.176 398.246L 304.18 398.246zM 368.152 590.043C 374.953 587.164 381.91 584.598 388.801 580.571L 368.152 580.571L 368.152 590.043zM 398.629 574.625C 405.305 570.368 411.738 565.793 417.898 560.911L 392.723 560.911L 392.723 574.625L 398.625 574.625L 398.629 574.625zM 424.801 555.231C 429.887 550.871 434.773 546.297 439.453 541.516L 415.48 541.516L 415.48 555.231L 424.797 555.231L 424.801 555.231zM 444.609 536.094C 449.32 530.961 453.793 525.606 458.031 520.055L 435.133 520.055L 435.133 536.094L 444.605 536.094L 444.609 536.094zM 462.433 514.114C 466.019 509.094 469.41 503.911 472.605 498.59L 457.89 498.59L 457.89 514.114L 462.433 514.114zM 477.027 490.891C 479.457 486.481 481.754 481.977 483.914 477.383L 477.027 477.383L 477.027 490.891zM 486.273 472.215C 488.512 467.141 490.578 461.961 492.484 456.692L 457.637 456.692L 457.637 472.215L 486.273 472.215zM 494.371 451.27C 495.824 446.934 497.164 442.532 498.387 438.075L 478.836 438.075L 478.836 451.27L 494.367 451.27L 494.371 451.27zM 500.305 430.7C 501.305 426.567 502.195 422.383 503 418.161L 500.305 418.161L 500.305 430.7zM 503.926 412.996C 504.746 408.137 505.433 403.219 505.984 398.25L 477.289 398.25L 477.289 412.996L 503.926 412.996zM 388.441 560.911L 364.211 560.911L 364.211 574.625L 388.441 574.625L 388.441 560.911zM 412.101 540.387L 366.734 540.387L 366.734 556.356L 412.101 556.356L 412.101 540.387zM 410.941 541.516L 367.898 541.516L 367.898 555.231L 410.941 555.231L 410.941 541.516zM 386.89 520.051L 356.734 520.051L 356.746 536.09L 386.887 536.09L 386.887 520.051L 386.89 520.051zM 431.758 518.922L 392.34 518.922L 392.34 537.219L 431.758 537.219L 431.758 518.922zM 430.594 520.051L 393.5 520.051L 393.5 536.09L 430.594 536.09L 430.594 520.051zM 453.996 497.457L 414.578 497.457L 414.578 515.239L 453.996 515.239L 453.996 497.457zM 452.836 498.586L 415.742 498.586L 415.742 514.11L 452.836 514.11L 452.836 498.586zM 410.808 497.457L 371.39 497.457L 371.39 515.239L 410.808 515.239L 410.808 497.457zM 409.648 498.586L 372.555 498.586L 372.555 514.11L 409.648 514.11L 409.648 498.586zM 387.406 438.071L 354.988 438.071C 356.308 440.946 357.906 443.817 359.156 446.879L 350.691 450.575L 350.847 451.313L 387.402 451.262L 387.402 438.067L 387.406 438.071zM 431.5 436.942L 390.531 436.942L 390.531 452.395L 431.5 452.395L 431.5 436.942zM 430.336 438.071L 391.687 438.071L 391.687 451.266L 430.336 451.266L 430.336 438.071zM 474.945 436.942L 433.457 436.942L 433.457 452.395L 474.945 452.395L 474.945 436.942zM 473.785 438.071L 434.621 438.071L 434.621 451.266L 473.785 451.266L 473.785 438.071zM 367.234 456.692L 352.508 456.692C 354.551 461.766 356.211 466.942 357.48 472.215L 367.234 472.215L 367.234 456.692zM 410.551 455.563L 371.133 455.563L 371.133 473.344L 410.551 473.344L 410.551 455.563zM 409.39 456.692L 372.297 456.692L 372.297 472.215L 409.39 472.215L 409.39 456.692zM 387.148 477.379L 358.597 477.379C 359.406 481.618 359.973 485.922 360.297 490.286L 364.859 490.286L 364.859 492.903L 387.144 492.903L 387.144 477.379L 387.148 477.379zM 430.723 476.25L 391.305 476.25L 391.305 494.032L 430.723 494.032L 430.723 476.25zM 429.558 477.379L 392.465 477.379L 392.465 492.903L 429.558 492.903L 429.558 477.379zM 473.652 476.25L 434.234 476.25L 434.234 494.032L 473.652 494.032L 473.652 476.25zM 472.488 477.379L 435.394 477.379L 435.394 492.903L 472.488 492.903L 472.488 477.379zM 453.48 455.563L 414.062 455.563L 414.062 473.344L 453.48 473.344L 453.48 455.563zM 452.316 456.692L 415.223 456.692L 415.223 472.215L 452.316 472.215L 452.316 456.692zM 366.976 418.161L 341.328 418.161C 345.09 422.735 348.832 427.653 352.383 432.907L 366.976 432.907L 366.976 418.161zM 409.773 417.032L 370.355 417.032L 370.355 434.036L 409.773 434.036L 409.773 417.032zM 408.613 418.161L 371.519 418.161L 371.519 432.907L 408.613 432.907L 408.613 418.161zM 452.445 417.032L 413.027 417.032L 413.027 434.036L 452.445 434.036L 452.445 417.032zM 451.285 418.161L 414.191 418.161L 414.191 432.907L 451.285 432.907L 451.285 418.161zM 496.668 417.032L 457.25 417.032L 457.25 434.036L 496.668 434.036L 496.668 417.032zM 495.508 418.161L 458.414 418.161L 458.414 432.907L 495.508 432.907L 495.508 418.161zM 473.133 397.118L 433.715 397.118L 433.715 414.121L 473.133 414.121L 473.133 397.118zM 471.973 398.246L 434.879 398.246L 434.879 412.993L 471.973 412.993L 471.973 398.246zM 429.945 397.118L 390.527 397.118L 390.527 414.121L 429.945 414.121L 429.945 397.118zM 428.785 398.246L 391.691 398.246L 391.691 412.993L 428.785 412.993L 428.785 398.246zM 387.015 397.118L 347.597 397.118L 347.597 414.121L 387.015 414.121L 387.015 397.118zM 385.855 398.246L 348.762 398.246L 348.762 412.993L 385.855 412.993L 385.855 398.246zM 489.906 312.047L 368.957 312.047L 368.957 314.149L 382.894 314.149L 382.894 332.954L 368.957 332.954L 368.957 334.653L 388.515 334.653L 388.515 332.954L 384.418 332.954L 384.418 314.149L 427.297 314.149L 427.297 319.368L 429.215 319.368L 429.215 314.149L 472.094 314.149L 472.094 332.954L 470.398 332.954L 470.398 334.653L 489.902 334.653L 489.902 332.954L 473.418 332.954L 473.418 314.149L 489.902 314.149L 489.902 312.047L 489.906 312.047zM 489.906 353.465L 470.402 353.465L 470.402 354.926L 471.09 354.926L 471.09 361.368L 473.594 361.368L 473.594 354.926L 489.902 354.926L 489.902 353.465L 489.906 353.465zM 407.109 334.657L 411.367 334.657L 411.367 353.461L 407.109 353.461L 407.109 354.922L 420.16 354.922L 420.16 353.461L 413.875 353.461L 413.875 334.657L 420.16 334.657L 420.16 332.957L 407.109 332.957L 407.109 334.657zM 388.515 353.465L 368.957 353.465L 368.957 354.926L 382.742 354.926L 382.742 373.731L 368.957 373.731L 368.957 377.254L 397.293 377.254L 397.293 373.731L 384.371 373.731L 384.371 354.926L 388.515 354.926L 388.515 353.465zM 428.211 356.161L 427.25 356.161L 427.25 361.368L 428.211 361.368L 428.211 356.161zM 438.754 354.926L 451.805 354.926L 451.805 353.465L 446.937 353.465L 446.937 334.661L 451.805 334.661L 451.805 332.961L 438.754 332.961L 438.754 334.661L 445.297 334.661L 445.297 353.465L 438.754 353.465L 438.754 354.926zM 432.762 377.262L 456.113 377.262L 456.113 361.371L 469.926 361.371L 469.926 356.164C 456.281 356.164 442.922 356.164 429.371 356.164L 429.371 361.371L 432.758 361.371L 432.758 377.262L 432.762 377.262zM 381.582 356.055L 368.957 356.055L 368.957 372.602L 381.582 372.602L 381.582 356.055zM 385.531 356.161L 385.531 372.606L 397.293 372.606L 397.293 361.371L 426.086 361.371L 426.086 356.164C 412.605 356.164 399.008 356.164 385.531 356.164L 385.531 356.161zM 489.906 356.055L 474.762 356.055L 474.762 361.368L 489.906 361.368L 489.906 356.055zM 489.906 335.786L 470.402 335.786L 470.402 352.332L 489.906 352.332L 489.906 335.786zM 451.808 335.786L 448.105 335.786L 448.105 352.332L 451.808 352.332L 451.808 335.786zM 444.137 335.786L 438.758 335.786L 438.758 352.332L 444.137 352.332L 444.137 335.786zM 420.164 335.786L 415.039 335.786L 415.039 352.332L 420.164 352.332L 420.164 335.786zM 410.207 335.786L 407.109 335.786L 407.109 352.332L 410.207 352.332L 410.207 335.786zM 388.515 335.786L 368.957 335.786L 368.957 352.332L 388.515 352.332L 388.515 335.786zM 381.734 315.278L 368.957 315.278L 368.957 331.825L 381.734 331.825L 381.734 315.278zM 426.137 315.278L 385.582 315.278L 385.582 331.825L 388.515 331.825L 388.515 319.371L 407.105 319.371L 407.105 331.825L 420.156 331.825L 420.156 319.371L 426.129 319.371L 426.129 315.282L 426.137 315.278zM 489.906 315.278L 474.586 315.278L 474.586 331.825L 489.906 331.825L 489.906 315.278zM 470.937 315.278L 430.383 315.278L 430.383 319.368L 438.758 319.368L 438.758 331.821L 451.808 331.821L 451.808 319.368L 470.398 319.368L 470.398 331.821L 470.93 331.821L 470.93 315.274L 470.937 315.278zM 447.476 181.446L 445.305 181.446L 445.305 199.5L 415.43 199.5L 415.43 181.446L 413.258 181.446L 413.258 199.5L 391.777 199.5L 391.777 201.2L 429.519 201.2L 429.519 220.106L 429.144 220.106L 429.144 221.805L 431.789 221.805L 431.789 220.106L 431.223 220.106L 431.223 201.2L 471.812 201.2L 471.812 199.5L 447.484 199.5L 447.484 181.446L 447.476 181.446zM 409.656 220.114L 391.769 220.114L 391.769 221.813L 409.656 221.813L 409.656 220.114zM 451.258 221.817L 471.805 221.817L 471.805 220.118L 451.258 220.118L 451.258 221.817zM 391.765 240.348L 409.652 240.348L 409.652 238.27L 391.765 238.27L 391.765 240.348zM 429.133 240.348L 429.508 240.348L 429.508 260.012L 391.765 260.012L 391.765 262.09L 413.246 262.09L 413.246 275.137L 415.797 275.137L 415.797 262.09L 444.726 262.09L 444.726 275.137L 447.277 275.137L 447.277 262.09L 471.797 262.09L 471.797 260.012L 431.207 260.012L 431.207 240.348L 431.773 240.348L 431.773 238.27L 429.129 238.27L 429.129 240.348L 429.133 240.348zM 451.258 240.348L 471.805 240.348L 471.805 238.27L 451.258 238.27L 451.258 240.348zM 412.199 262.946L 391.769 262.946L 391.769 274.852L 412.199 274.852L 412.199 262.946zM 409.656 241.2L 391.769 241.2L 391.769 259.157L 428.465 259.157L 428.465 254.528L 409.66 254.528L 409.66 241.2L 409.656 241.2zM 471.805 222.668L 451.258 222.668L 451.258 237.411L 471.805 237.411L 471.805 222.668zM 431.781 222.668L 429.137 222.668L 429.137 237.411L 431.781 237.411L 431.781 222.668zM 409.656 222.668L 391.769 222.668L 391.769 237.411L 409.656 237.411L 409.656 222.668zM 471.805 202.055L 432.262 202.055L 432.262 205.739L 451.254 205.739L 451.254 219.254L 471.801 219.254L 471.801 202.051L 471.805 202.055zM 428.461 202.055L 391.769 202.055L 391.769 219.258L 409.656 219.258L 409.656 205.743L 428.461 205.743L 428.461 202.059L 428.461 202.055zM 412.113 181.446L 391.769 181.446L 391.769 198.649L 412.113 198.649L 412.113 181.446zM 444.168 181.446L 416.562 181.446L 416.562 198.649L 444.168 198.649L 444.168 181.446zM 471.805 181.446L 448.609 181.446L 448.609 198.649L 471.805 198.649L 471.805 181.446zM 471.805 241.2L 451.258 241.2L 451.258 254.528L 432.265 254.528L 432.265 259.157L 471.808 259.157L 471.808 241.2L 471.805 241.2zM 471.805 262.946L 448.336 262.946L 448.336 274.852L 471.805 274.852L 471.805 262.946zM 443.683 262.946L 416.851 262.946L 416.851 274.852L 443.683 274.852L 443.683 262.946zM 482.387 145.403L 465.812 145.403L 465.812 159.161L 442.281 159.161L 442.281 149.207L 421.933 149.207L 421.933 159.161L 397.195 159.161L 397.195 145.403L 380.801 145.403L 380.801 177.887L 482.394 177.887L 482.394 145.403L 482.387 145.403zM 87.7232 181.418L 87.7232 199.496L 117.597 199.496L 117.597 181.418L 119.769 181.418L 119.769 199.496L 141.57 199.496L 141.57 201.196L 103.504 201.196C 103.504 208.063 103.504 214.938 103.504 221.805L 101.73 221.805C 101.73 214.938 101.73 208.067 101.73 201.196L 61.2461 201.196L 61.2461 199.496L 85.5432 199.496L 85.5432 181.418L 87.7152 181.418L 87.7232 181.418zM 123.367 220.114L 141.574 220.114L 141.574 221.813L 123.367 221.813L 123.367 220.114zM 81.7652 221.817L 61.25 221.817L 61.25 220.118L 81.7652 220.118L 81.7652 221.817zM 141.578 240.348L 123.371 240.348L 123.371 238.27L 141.578 238.27L 141.578 240.348zM 103.512 260.012L 141.578 260.012L 141.578 262.09L 119.777 262.09L 119.777 275.137L 117.226 275.137L 117.226 262.09L 88.2972 262.09L 88.2972 275.137L 85.7462 275.137L 85.7462 262.09L 61.2579 262.09L 61.2579 260.012L 101.742 260.012C 101.742 252.766 101.742 245.52 101.742 238.27L 103.515 238.27C 103.515 245.52 103.515 252.766 103.515 260.012L 103.512 260.012zM 81.7652 240.348L 61.25 240.348L 61.25 238.27L 81.7652 238.27L 81.7652 240.348zM 120.824 262.946L 141.574 262.946L 141.574 274.852L 120.824 274.852L 120.824 262.946zM 123.367 241.2L 141.574 241.2L 141.574 259.157L 104.562 259.157L 104.562 254.528L 123.367 254.528L 123.367 241.2zM 61.25 222.668L 81.7652 222.668L 81.7652 237.411L 61.25 237.411L 61.25 222.668zM 101.734 222.668L 103.508 222.668L 103.508 237.411L 101.734 237.411L 101.734 222.668zM 123.367 222.668L 141.574 222.668L 141.574 237.411L 123.367 237.411L 123.367 222.668zM 61.25 202.055L 100.762 202.055L 100.762 205.739L 81.7692 205.739L 81.7692 219.254L 61.254 219.254L 61.254 202.051L 61.25 202.055zM 104.562 202.055L 141.574 202.055L 141.574 219.258L 123.367 219.258L 123.367 205.743L 104.562 205.743L 104.562 202.059L 104.562 202.055zM 120.91 181.446L 141.574 181.446L 141.574 198.649L 120.91 198.649L 120.91 181.446zM 88.8592 181.446L 116.465 181.446L 116.465 198.649L 88.8592 198.649L 88.8592 181.446zM 61.25 181.446L 84.4142 181.446L 84.4142 198.649L 61.25 198.649L 61.25 181.446zM 61.254 241.2L 81.7652 241.2L 81.7652 254.528L 100.758 254.528L 100.758 259.157L 61.25 259.157L 61.25 241.2L 61.254 241.2zM 61.254 262.946L 84.6872 262.946L 84.6872 274.852L 61.254 274.852L 61.254 262.946zM 89.3402 262.946L 116.172 262.946L 116.172 274.852L 89.3402 274.852L 89.3402 262.946zM 50.0586 145.403L 67.2071 145.403L 67.2071 159.161L 90.7382 159.161L 90.7382 149.207L 111.086 149.207L 111.086 159.161L 135.824 159.161L 135.824 145.403L 152.219 145.403L 152.219 177.7L 50.0508 177.7L 50.0508 145.403L 50.0586 145.403zM 43.5274 312.047L 163.683 312.047L 163.683 314.149L 150.129 314.149L 150.129 332.954L 163.683 332.954L 163.683 334.653L 144.508 334.653L 144.508 332.954L 148.605 332.954L 148.605 314.149L 105.726 314.149L 105.726 319.368L 103.808 319.368L 103.808 314.149L 60.9297 314.149L 60.9297 332.954L 62.625 332.954L 62.625 334.653L 43.5313 334.653L 43.5313 332.954L 59.6016 332.954L 59.6016 314.149L 43.5313 314.149L 43.5313 312.047L 43.5274 312.047zM 43.5274 353.465L 62.6211 353.465L 62.6211 354.926L 61.9336 354.926L 61.9336 361.832L 59.4297 361.832L 59.4297 354.926L 43.5352 354.926L 43.5352 353.465L 43.5274 353.465zM 125.914 334.657L 121.656 334.657L 121.656 353.461L 125.914 353.461L 125.914 354.922L 112.863 354.922L 112.863 353.461L 119.148 353.461L 119.148 334.657L 112.863 334.657L 112.863 332.957L 125.914 332.957L 125.914 334.657zM 144.508 353.465L 163.683 353.465L 163.683 354.926L 150.281 354.926L 150.281 373.731L 163.683 373.731L 163.683 377.254L 135.734 377.254L 135.734 373.731L 148.656 373.731L 148.656 354.926L 144.512 354.926L 144.512 353.465L 144.508 353.465zM 104.812 356.161L 105.773 356.161L 105.773 361.836L 104.812 361.836L 104.812 356.161zM 94.2692 354.926L 81.2192 354.926L 81.2192 353.465L 86.0862 353.465L 86.0862 334.661L 81.2192 334.661L 81.2192 332.961L 94.2692 332.961L 94.2692 334.661L 87.7262 334.661L 87.7262 353.465L 94.2692 353.465L 94.2692 354.926zM 100.262 377.262L 76.9102 377.262L 76.9102 361.84L 63.1016 361.84L 63.1016 356.164L 81.2192 356.164L 81.2192 356.063L 94.2692 356.063L 94.2692 356.164L 103.648 356.164L 103.648 361.84L 100.262 361.84L 100.262 377.262zM 151.441 356.055L 163.683 356.055L 163.683 372.602L 151.441 372.602L 151.441 356.055zM 112.859 356.055L 125.91 356.055L 125.91 356.157L 144.5 356.157L 144.5 356.055L 147.484 356.055L 147.484 372.602L 135.723 372.602L 135.723 361.836L 106.93 361.836L 106.93 356.161L 112.851 356.161L 112.851 356.059L 112.859 356.055zM 43.6407 356.055L 58.2618 356.055L 58.2618 361.368L 43.6407 361.368L 43.6407 356.055zM 43.5274 335.786L 62.6211 335.786L 62.6211 352.332L 43.5274 352.332L 43.5274 335.786zM 81.2152 335.786L 84.9182 335.786L 84.9182 352.332L 81.2152 352.332L 81.2152 335.786zM 88.8872 335.786L 94.2652 335.786L 94.2652 352.332L 88.8872 352.332L 88.8872 335.786zM 112.859 335.786L 117.984 335.786L 117.984 352.332L 112.859 352.332L 112.859 335.786zM 122.816 335.786L 125.914 335.786L 125.914 352.332L 122.816 352.332L 122.816 335.786zM 144.508 335.786L 163.683 335.786L 163.683 352.332L 144.508 352.332L 144.508 335.786zM 151.289 315.278L 163.68 315.278L 163.68 331.825L 151.289 331.825L 151.289 315.278zM 106.887 315.278L 147.441 315.278L 147.441 331.825L 144.508 331.825L 144.508 319.371L 125.918 319.371L 125.918 331.825L 112.867 331.825L 112.867 319.371L 106.894 319.371L 106.894 315.282L 106.887 315.278zM 43.5977 315.278L 58.4414 315.278L 58.4414 331.825L 43.5977 331.825L 43.5977 315.278zM 62.086 315.278L 102.64 315.278L 102.64 319.368L 94.2652 319.368L 94.2652 331.821L 81.2152 331.821L 81.2152 319.368L 62.625 319.368L 62.625 331.821L 62.0899 331.821L 62.0899 315.274L 62.086 315.278zM 43.6954 364.594L 72.6912 364.594L 72.6912 380.672L 104.324 380.672L 104.324 364.594L 132.004 364.594L 132.004 380.672L 163.074 380.672L 163.074 381.149L 166.09 381.149L 166.09 380.672L 168.113 380.672L 168.113 364.594L 191.574 364.594L 191.574 380.672L 224.262 380.672L 224.262 364.594L 249.937 364.594L 249.937 383.09C 245.547 383.856 240.5 385.454 236.808 387.262L 238.125 392.004L 28.8594 392.004L 27.8047 380.668L 43.6836 380.668L 43.6836 364.59L 43.6954 364.594zM 489.902 364.594L 458.996 364.594L 458.996 380.672L 428.957 380.672L 428.957 364.594L 401.277 364.594L 401.277 380.672L 365.164 380.672L 365.164 364.594L 340.113 364.594L 340.113 380.672L 306.367 380.672L 306.367 364.594L 281.859 364.594L 281.859 383.793C 286.25 385.282 287.723 385.426 291.031 387.407L 289.687 391.903L 507.14 392.004L 508.191 380.668L 489.914 380.668L 489.914 364.59L 489.902 364.594zM 208.586 335.379L 246.027 335.379L 246.027 349.825L 208.586 349.825L 208.586 335.379zM 247.426 335.379L 249.859 335.379L 249.859 351.219L 288.676 351.219L 288.676 335.379L 291.633 335.379L 291.633 351.219L 327.84 351.219L 327.84 352.786L 314.265 352.786L 314.265 367.926L 327.84 367.926L 327.84 369.664L 310.433 369.664L 310.433 361.313L 307.476 361.313L 307.476 352.786L 268.66 352.786L 268.66 367.926L 277.535 367.926L 277.535 369.664L 254.211 369.664L 254.211 367.926L 266.742 367.926L 266.742 352.786L 227.926 352.786L 227.926 361.313L 225.664 361.313L 225.664 352.786L 208.59 352.786L 208.59 351.219L 247.426 351.219L 247.426 335.379zM 220.094 369.672L 208.586 369.672L 208.586 367.934L 220.094 367.934L 220.094 369.672zM 251.254 335.379L 287.285 335.379L 287.285 349.825L 251.254 349.825L 251.254 335.379zM 293.031 335.379L 327.844 335.379L 327.844 349.825L 293.031 349.825L 293.031 335.379zM 315.664 354.18L 327.847 354.18L 327.847 366.536L 315.664 366.536L 315.664 354.18zM 310.437 371.067L 327.844 371.067L 327.844 376.114L 310.437 376.114L 310.437 371.067zM 277.539 376.114L 254.215 376.114L 254.215 371.067L 277.539 371.067L 277.539 376.114zM 220.094 376.114L 208.586 376.114L 208.586 371.067L 220.094 371.067L 220.094 376.114zM 270.055 354.18L 306.086 354.18L 306.086 361.317L 277.539 361.317L 277.539 366.536L 270.055 366.536L 270.055 354.176L 270.055 354.18zM 229.32 354.18L 265.351 354.18L 265.351 366.539L 254.211 366.539L 254.211 361.321L 229.32 361.321L 229.32 354.184L 229.32 354.18zM 208.586 354.18L 224.269 354.18L 224.269 361.317L 220.094 361.317L 220.094 366.536L 208.586 366.536L 208.586 354.176L 208.586 354.18zM 196.703 306.313L 220.625 306.313L 220.625 318.274L 254.211 318.274L 254.211 306.313L 278.594 306.313L 278.594 318.274L 312.18 318.274L 312.18 306.313L 338.402 306.313L 338.402 329.086L 196.699 329.086L 196.699 306.313"
       id="path26" />
    <path
       style="stroke:none; fill-rule:evenodd; fill:#959597"
       d="M 268.941 110.543L 269.859 78.934L 263.418 63.899L 259.121 43.032L 256.055 32.293L 253.293 31.989C 253.597 41.399 248.996 42.219 239.484 34.442L 254.828 56.539C 256.769 74.852 259.531 92.754 263.113 110.25L 268.941 110.555L 268.941 110.543zM 232.723 122.821L 242.234 109.625L 287.043 115.454L 295.328 149.52L 291.031 151.051L 273.23 137.547L 267.402 141.844L 267.097 148.903L 259.734 155.961L 250.836 140.618L 260.347 122.817L 232.726 122.817L 232.723 122.821zM 462.871 155.832L 445.355 155.832L 445.355 145.825L 418.457 145.825L 418.457 155.832L 400.316 155.832L 400.316 145.825L 430.969 83.891L 462.875 145.825L 462.875 155.832L 462.871 155.832zM 472.254 279.918L 391.289 279.918L 369.652 309.297L 493.133 309.297L 472.258 279.918L 472.254 279.918zM 61.5352 279.918L 141.738 279.918L 163.375 309.297L 39.8946 309.297L 61.5313 279.918L 61.5352 279.918zM 70.1524 155.832L 87.6682 155.832L 87.6682 145.825L 114.566 145.825L 114.566 155.832L 132.707 155.832L 132.707 145.825L 102.055 83.891L 70.1485 145.825L 70.1485 155.832L 70.1524 155.832zM 273.543 140.621L 287.351 151.977L 281.523 156.578L 268.633 144.61L 273.543 140.621zM 217.07 140.008L 249.297 140.008L 258.808 157.196L 236.406 179.293L 235.18 159.957L 217.074 140.008L 217.07 140.008zM 247.609 143.383C 248.707 143.383 249.601 144.141 249.601 145.071C 249.601 145.996 248.707 146.754 247.609 146.754C 246.512 146.754 245.617 145.996 245.617 145.071C 245.617 144.141 246.512 143.383 247.609 143.383zM 250.066 148.602C 251.164 148.602 252.058 149.36 252.058 150.289C 252.058 151.219 251.164 151.977 250.066 151.977C 248.969 151.977 248.074 151.219 248.074 150.289C 248.074 149.36 248.969 148.602 250.066 148.602zM 252.519 153.207C 253.617 153.207 254.512 153.965 254.512 154.895C 254.512 155.825 253.617 156.582 252.519 156.582C 251.422 156.582 250.527 155.825 250.527 154.895C 250.527 153.965 251.422 153.207 252.519 153.207zM 286.433 113L 316.203 107.477C 317.43 103.184 317.836 99.297 317.43 95.817C 312.625 101.543 296.457 105.43 286.433 113zM 301.473 102.871L 307.918 99.496L 307 96.121C 303.113 97.551 301.273 99.801 301.476 102.871L 301.473 102.871zM 281.832 111.465L 309.144 76.172L 308.531 83.231L 299.941 92.129L 300.555 98.879L 299.023 103.481L 281.84 111.457L 281.832 111.465zM 287.676 50.356C 288.187 46.684 287.316 43.559 284.785 40.293C 283.875 40.27 283.519 40.368 283.418 41.36C 285.41 44.356 286.703 47.356 287.68 50.356L 287.676 50.356zM 289.812 47.321L 289.508 55.914L 295.644 60.516L 298.097 59.598C 296.461 57.657 296.055 55.711 296.871 53.77C 296.566 50.395 294.211 48.246 289.812 47.328L 289.812 47.321zM 279.07 111.774L 307.305 73.719L 305.156 58.989C 303.625 66.047 300.863 69.012 296.871 67.887L 296.258 64.512L 286.133 55.309C 284.703 47.051 281.324 42.192 276.621 39.657L 291.351 68.504L 290.125 76.789L 276.93 110.856L 279.078 111.774L 279.07 111.774zM 279.683 96.735L 288.89 73.719L 288.586 68.196L 278.461 48.86L 284.289 65.43L 283.371 76.477L 279.691 96.731L 279.683 96.735zM 271.09 111.161L 273.543 111.161L 282.137 68.809L 272.93 43.95L 275.691 61.75L 271.09 111.161zM 272.008 74.942L 271.703 55.61L 269.25 46.098L 262.191 40.575L 265.566 59.907L 272.008 74.942zM 254.207 71.567L 252.98 57.45L 231.805 30.75L 232.109 42.719L 248.988 61.133L 250.828 71.258L 254.203 71.563L 254.207 71.567zM 260.961 109.93L 254.515 73.102L 248.687 73.102L 246.847 62.668L 221.07 35.356L 212.785 33.825L 210.637 35.664L 238.871 62.672L 239.48 68.196L 256.973 109.629L 260.961 109.934L 260.961 109.93zM 252.058 105.02L 237.941 69.727L 233.031 74.024L 226.59 67.274L 219.84 56.536L 212.781 55.926L 195.594 39.047L 182.707 33.524L 191.301 43.957L 191.605 47.332L 179.332 43.957L 179.332 47.637L 212.172 58.071L 252.07 105.028L 252.058 105.02zM 241.625 108.395L 253.285 108.395L 210.625 60.516L 178.707 49.469L 176.254 50.696L 161.523 40.875L 158.457 44.25L 142.5 39.036L 172.883 58.371L 182.703 58.676L 193.137 66.348L 197.125 61.746L 205.719 69.11L 210.32 64.813L 241.625 108.391L 241.625 108.395zM 234.875 102.567L 209.711 67.274L 205.723 70.649L 197.437 64.512L 193.449 68.5L 182.402 61.442L 174.426 60.828L 151.715 67.887L 187.316 72.797L 234.887 102.567"
       id="path28" />
  </g>
</svg>
